<svg xmlns="http://www.w3.org/2000/svg" viewBox="0 0 120 120" width="120" height="120">
  <defs>
    <linearGradient id="body" x1="0" y1="0" x2="1" y2="1"><stop offset="0" stop-color="#2c4a6e"/><stop offset="1" stop-color="#0c1b2f"/></linearGradient>
    <linearGradient id="glass" x1="0" y1="0" x2="1" y2="1"><stop offset="0" stop-color="#4dd8ff"/><stop offset="1" stop-color="#0b8fc4"/></linearGradient>
    <radialGradient id="shadow"><stop offset="0" stop-color="#123a66" stop-opacity=".22"/><stop offset="1" stop-color="#123a66" stop-opacity="0"/></radialGradient>
  </defs>
  <rect x="1" y="1" width="118" height="118" rx="16" fill="#e8eff8"/>
  <linearGradient id="beam" x1="0" y1="0" x2="0" y2="1"><stop offset="0" stop-color="#17b8ec" stop-opacity=".5"/><stop offset="1" stop-color="#17b8ec" stop-opacity=".05"/></linearGradient>
  <!-- ceiling bracket -->
  <rect x="58" y="10" width="36" height="5" rx="2" fill="#0a1426"/>
  <path d="M68 15 L68 30 M84 15 L84 30" stroke="#0a1426" stroke-width="4" stroke-linecap="round"/>
  <!-- beam onto parcel -->
  <path d="M52 52 L64 52 L50 86 L16 86 Z" fill="url(#beam)"/>
  <!-- housing -->
  <rect x="48" y="28" width="52" height="26" rx="6" fill="url(#body)"/>
  <path d="M53 31.5 L95 31.5" stroke="#ffffff" stroke-opacity=".28" stroke-width="1.6" stroke-linecap="round"/>
  <rect x="50" y="49" width="16" height="5" rx="2.5" fill="url(#glass)"/>
  <circle cx="92" cy="38" r="2.2" fill="#4dd8ff"/>
  <g fill="#8aa3c2"><circle cx="68" cy="29.5" r="1.4"/><circle cx="84" cy="29.5" r="1.4"/></g>
  <!-- cable -->
  <path d="M100 42 Q110 42 110 54 L110 70" fill="none" stroke="#0a1426" stroke-width="3" stroke-linecap="round"/>
  <!-- parcel with barcode -->
  <rect x="14" y="80" width="40" height="22" rx="2" fill="#d9b98c"/>
  <rect x="14" y="80" width="40" height="4" fill="#c7a472"/>
  <rect x="20" y="87" width="24" height="10" rx="1" fill="#ffffff"/>
  <g fill="#123a66"><rect x="22" y="88.5" width="1.5" height="7"/><rect x="25" y="88.5" width="3" height="7"/><rect x="29.5" y="88.5" width="1" height="7"/><rect x="32" y="88.5" width="2.5" height="7"/><rect x="36" y="88.5" width="1" height="7"/><rect x="38.5" y="88.5" width="3" height="7"/></g>
  <line x1="18" y1="92" x2="46" y2="92" stroke="#4dd8ff" stroke-width="1.2"/>
  <!-- conveyor -->
  <rect x="6" y="102" width="108" height="5" rx="2.5" fill="#0c1b2f"/>
  <g fill="#8aa3c2"><circle cx="16" cy="104.5" r="1.4"/><circle cx="34" cy="104.5" r="1.4"/><circle cx="52" cy="104.5" r="1.4"/><circle cx="70" cy="104.5" r="1.4"/><circle cx="88" cy="104.5" r="1.4"/><circle cx="106" cy="104.5" r="1.4"/></g>
</svg>
